<svg xmlns="http://www.w3.org/2000/svg"><defs><font horiz-adv-x="512"><font-face units-per-em="512" ascent="480" descent="-32"/><glyph horiz-adv-x="256"/><glyph unicode="" d="M0 45.714V356.57q0 18.858 13.428 32.286t32.285 13.43h420.572q18.857 0 32.286-13.43T512 356.57V45.715q0-18.857-13.43-32.286T466.286 0H45.713Q26.856 0 13.428 13.428T0 45.714zm36.572 0q0-3.714 2.715-6.428t6.428-2.714h420.572q3.714 0 6.428 2.714t2.714 6.428v219.428q-9.144-10.286-19.715-18.857Q379.143 187.428 334 149.713q-14.57-12.286-23.713-19.143t-24.714-13.857-29.286-7h-.57q-13.715 0-29.286 7t-24.713 13.857-23.714 19.143q-45.143 37.714-121.715 96.572-10.572 8.572-19.715 18.857V45.714zm0 310.858q0-48 42-81.143 55.143-43.43 114.572-90.573 1.714-1.428 10-8.428t13.143-10.715 12.714-9 14.43-7.857 12.285-2.572h.572q5.714 0 12.286 2.572T283 156.715t12.715 9 13.143 10.714 10 8.427Q378.286 232 433.43 275.43q15.428 12.285 28.714 33T475.43 346v7l-.143 3.715-.857 3.572-1.572 2.57-2.572 2.144-4 .715H45.714q-3.715 0-6.428-2.714t-2.715-6.427z"/><glyph unicode="" d="M0 290.572q0 10.572 16 13.143l143.43 20.857 64.284 130q5.428 11.714 14 11.714t14-11.714l64.286-130 143.428-20.857q16-2.572 16-13.143 0-6.286-7.428-13.714L364.286 175.715l24.572-142.857q.286-2 .286-5.714 0-6-3-10.143t-8.714-4.142q-5.428 0-11.428 3.428L237.716 83.714 109.43 16.286q-6.285-3.428-11.428-3.428-6 0-9 4.143t-3 10.144q0 1.714.572 5.714l24.572 142.857-104 101.143Q.003 284.572.003 290.572z" horiz-adv-x="476"/><glyph unicode="" d="M0 290.572q0 10.572 16 13.143l143.43 20.857 64.284 130q5.428 11.714 14 11.714t14-11.714l64.286-130 143.428-20.857q16-2.572 16-13.143 0-6.286-7.428-13.714L364.286 175.715l24.572-142.857q.286-2 .286-5.714 0-14.286-11.714-14.286-5.428 0-11.428 3.428L237.716 83.714 109.43 16.286q-6.285-3.428-11.428-3.428-6 0-9 4.143t-3 10.144q0 1.714.572 5.714l24.572 142.857-104 101.143Q.003 284.572.003 290.572zm63.143-17.143l87.43-84.858-20.858-120.286 108 56.857L345.43 68.286l-20.572 120.286 87.428 84.857-120.572 17.714-54 109.143-54-109.143z" horiz-adv-x="476"/><glyph unicode="" d="M0 74q0 15.143 1 29.572t4 31.143 7.572 31 12.285 27.857 17.715 23.143T67 232t31.857 5.715q2.572 0 12-6.143t21.285-13.714T163 204.144 201.14 198t38.143 6.144 30.857 13.714 21.286 13.714 12 6.143q17.428 0 31.857-5.714t24.428-15.284 17.714-23.143 12.286-27.857 7.572-31 4-31.143 1-29.572q0-34.285-20.857-54.142T326 0H76.286Q41.714 0 20.858 19.86T0 74zm91.428 255.143q0 45.428 32.143 77.57t77.573 32.144 77.57-32.143 32.144-77.57-32.143-77.573-77.572-32.142-77.572 32.143-32.143 77.573z" horiz-adv-x="403"/><glyph unicode="" d="M34.572 210.286q0 11.428 8 19.428L81.43 268.57q8 8 19.427 8t19.428-8l84-84.284L391.715 372q8 8 19.427 8t19.428-8l38.857-38.857q8-8 8-19.428t-8-19.428L223.713 48.573q-8-8-19.428-8t-19.428 8L42.57 190.86q-8 8-8 19.427z"/><glyph unicode="" d="M31.428 97.714q0 11.428 8 19.428l84 84-84 84q-8 8-8 19.428t8 19.428l38.857 38.857q8 8 19.428 8t19.428-8l84-84 84 84q8 8 19.43 8t19.427-8l38.857-38.857q8-8 8-19.428t-8-19.428l-84-84 84-84q8-8 8-19.428t-8-19.428L323.997 39.43q-8-8-19.428-8t-19.43 8l-84 84-84-84q-8-8-19.427-8t-19.428 8L39.428 78.285q-8 8-8 19.428z" horiz-adv-x="403"/><glyph unicode="" d="M0 188.286v63.428q0 3.428 2.285 6.572T7.713 262l53.143 8q4 13.143 11.143 26.286-11.43 16.286-30.573 39.428-2.857 3.428-2.857 6.857 0 2.858 2.572 6.573 7.428 10.286 28.143 30.714t27 20.428q3.715 0 7.428-2.857l39.428-30.572q12.572 6.572 26 10.857 4.572 38.857 8.287 53.143 2 8 10.286 8h63.43q4 0 7-2.428t3.285-6.143l8-52.57q14-4.573 25.714-10.573l40.572 30.572q2.572 2.57 6.857 2.57 3.715 0 7.144-2.856 36.857-34 47.143-48.572 2-2.286 2-6.286 0-3.428-2.286-6.57-4.285-6-14.57-19t-15.43-20.144q7.43-14.286 11.715-28l52.286-8q3.715-.57 6-3.57t2.287-6.715v-63.427q0-3.428-2.286-6.572t-5.713-3.713l-52.857-8q-5.428-15.428-11.143-26 10-14.286 30.572-39.428 2.856-3.43 2.856-7.144t-2.572-6.572Q390 79.142 369.428 58.857T342.57 38.57q-3.427 0-7.427 2.573L295.715 72q-12.572-6.572-26-10.857Q265.143 22.286 261.43 8q-2-8-10.287-8h-63.428q-4 0-7 2.428T177.43 8.57l-8 52.573q-14 4.572-25.715 10.572L103.43 41.143q-2.857-2.572-7.143-2.572-4 0-7.143 3.144-36 32.572-47.143 48-2 2.857-2 6.572 0 3.428 2.286 6.572 4.285 6 14.572 19T72.286 142q-7.715 14.287-11.715 28.287L8.287 178q-3.715.573-6 3.573T0 188.287zm146.286 31.143q0-30.287 21.428-51.715t51.714-21.428 51.714 21.428 21.428 51.714-21.428 51.713-51.714 21.428-51.714-21.427-21.428-51.714z"/><glyph unicode="" d="M7.428 218.43q.285 3.856 3.143 6.142L216 395.715q9.142 7.428 21.713 7.428t21.714-7.428l69.714-58.286v55.713q0 4 2.573 6.572t6.572 2.57h54.857q4 0 6.572-2.57t2.572-6.572V276.57l62.572-52q2.857-2.285 3.143-6.142t-2-6.714l-17.713-21.143q-2.286-2.57-6-3.142h-.857q-3.714 0-6 2L237.716 354.285 40.002 189.428q-3.428-2.286-6.857-2-3.715.572-6 3.143L9.43 211.715q-2.285 2.857-2 6.714zM73.143 54.856V192q0 .286.143.857t.143.857l164.285 135.428L402 193.714q.286-.572.286-1.714V54.857q0-7.428-5.428-12.857T384 36.572H274.288v109.714h-73.143V36.572H91.43Q84 36.572 78.57 42t-5.428 12.857z" horiz-adv-x="476"/><glyph unicode="" d="M0 219.43q0 59.713 29.428 110.142t79.857 79.857 110.143 29.427T329.57 409.43t79.858-79.858 29.428-110.143-29.428-110.144T329.57 29.43 219.43 0 109.285 29.43t-79.857 79.856T0 219.43zm64 0q0-42.287 20.857-78t56.57-56.573 78-20.857 78 20.857T354 141.43t20.857 78-20.857 78T297.428 354t-78 20.858-78-20.857-56.572-56.57-20.857-78zM146.286 192v18.286q0 4 2.57 6.572t6.572 2.57h64v100.573q0 4 2.57 6.573t6.572 2.57h18.286q4 0 6.572-2.57t2.57-6.572V192q0-4-2.57-6.57t-6.572-2.573h-91.428q-4 0-6.572 2.572t-2.57 6.57z"/><glyph unicode="" d="M0 219.43q0 59.713 29.428 110.142t79.857 79.857 110.143 29.427T329.57 409.43t79.858-79.858 29.428-110.143-29.428-110.144T329.57 29.43 219.43 0 109.285 29.43t-79.857 79.856T0 219.43zm64 0q0-42.287 20.857-78t56.57-56.573 78-20.857 78 20.857T354 141.43t20.857 78-20.857 78T297.428 354t-78 20.858-78-20.857-56.572-56.57-20.857-78zm55.428-5.716q2.285 5.714 8.572 5.714h54.857V320q0 4 2.57 6.572t6.573 2.57h54.857q4 0 6.57-2.57T256 320V219.428h54.856q4 0 6.572-2.572t2.572-6.572q0-3.428-2.857-6.857L226 112.284q-3.143-2.572-6.57-2.572t-6.573 2.572l-91.428 91.428q-4.286 4.572-2 10z"/><glyph unicode="" d="M0 219.43q0 59.713 29.428 110.142t79.857 79.857 110.143 29.427T329.57 409.43t79.858-79.858 29.428-110.143-29.428-110.144T329.57 29.43 219.43 0 109.285 29.43t-79.857 79.856T0 219.43zm64 0q0-42.287 20.857-78t56.57-56.573 78-20.857 78 20.857T354 141.43t20.857 78-20.857 78T297.428 354t-78 20.858-78-20.857-56.572-56.57-20.857-78zm54.857 9.142q0 3.43 2.857 6.857l91.143 91.142q3.143 2.572 6.57 2.572t6.573-2.572l91.428-91.428q4.286-4.572 2-10-2.286-5.714-8.572-5.714H256V118.858q0-4-2.572-6.572t-6.572-2.572H192q-4 0-6.572 2.572t-2.57 6.572V219.43H128q-4 0-6.572 2.57t-2.572 6.573z"/><glyph unicode="" d="M0 283.43v118.856Q0 417.143 10.857 428t25.715 10.858H155.43q15.142 0 33.427-7.572T218 412.858l204.285-204q10.572-11.143 10.572-26 0-15.143-10.572-25.714L282 16.574Q270.855 6 256 6q-15.144 0-25.715 10.573L26 221.143Q15.14 231.717 7.57 250.002T0 283.43zm54.857 64q0-15.144 10.715-25.858t25.857-10.714 25.856 10.714T128 347.43t-10.714 25.856T91.43 384 65.57 373.287 54.857 347.43z"/><glyph unicode="" d="M0 283.43v118.856Q0 417.143 10.857 428t25.715 10.858H155.43q15.142 0 33.427-7.572T218 412.858l204.285-204q10.572-11.143 10.572-26 0-15.143-10.572-25.714L282 16.574Q270.855 6 256 6q-15.144 0-25.715 10.573L26 221.143Q15.14 231.717 7.57 250.002T0 283.43zm54.857 64q0-15.144 10.715-25.858t25.857-10.714 25.856 10.714T128 347.43t-10.714 25.856T91.43 384 65.57 373.287 54.857 347.43zm146.286 91.427h64q15.143 0 33.428-7.572t29.144-18.428l204.285-204q10.57-11.143 10.57-26 0-15.143-10.57-25.714L391.712 16.573Q380.57 6 365.713 6q-10.286 0-16.857 4t-15.143 12.857L468 157.143q10.57 10.572 10.57 25.714 0 14.857-10.57 26l-204.287 204q-10.857 10.857-29.143 18.428t-33.43 7.572z" horiz-adv-x="549"/><glyph unicode="" d="M0 54.857V91.43q0 7.427 5.428 12.856t12.857 5.428h475.428q7.428 0 12.857-5.428t5.428-12.857V54.856q0-7.428-5.428-12.857t-12.857-5.428H18.285q-7.428 0-12.857 5.428T0 54.857zm0 109.715v36.572Q0 208.572 5.428 214t12.857 5.43h475.428q7.428 0 12.857-5.43t5.428-12.856v-36.572q0-7.428-5.428-12.857t-12.857-5.428H18.285q-7.428 0-12.857 5.428T0 164.572zm0 109.714v36.572q0 7.428 5.428 12.857t12.857 5.43h475.428q7.428 0 12.857-5.43t5.428-12.856v-36.572q0-7.428-5.428-12.857t-12.857-5.427H18.285q-7.428 0-12.857 5.428T0 274.29zM0 384v36.57Q0 428 5.428 433.43t12.857 5.428h475.428q7.428 0 12.857-5.428t5.428-12.857V384q0-7.43-5.428-12.857t-12.857-5.428H18.285q-7.428 0-12.857 5.428T0 384z"/><glyph unicode="" d="M0 0v118.857L237.714 356.57 356.57 237.715 118.858 0H0zm36.572 73.143h36.572V36.57h30.572l26 26-67.143 67.144-26-26V73.142zm48.57 73.143q0-6.286 6.286-6.286 2.857 0 4.857 2l154.857 154.857q2 2 2 4.857 0 6.286-6.286 6.286-2.857 0-4.857-2L87.14 151.143q-2-2-2-4.857zM256 374.856L303.428 422q10.286 10.857 25.714 10.857 15.143 0 26-10.857l67.143-66.857q10.572-11.143 10.572-26 0-15.143-10.572-25.714L374.857 256z"/><glyph unicode="" d="M0 292.572q0 60.572 42.857 103.43t103.43 42.856T249.713 396t42.857-103.428q0-31.143-9.427-51.143l-104-221.144Q174.57 10.858 165.57 5.43T146.286 0 127 5.43t-13.285 14.856L9.43 241.43q-9.428 20-9.428 51.142zm73.143 0q0-30.285 21.428-51.714t51.716-21.428T198 240.858t21.428 51.714T198 344.286t-51.714 21.428-51.715-21.428-21.427-51.714z" horiz-adv-x="293"/><glyph unicode="" d="M0 118.857V356.57q0 34 24.143 58.144t58.143 24.143H320q18 0 33.428-7.143 4.286-2 5.143-6.572.858-4.857-2.57-8.285l-14-14Q339.14 400 335.426 400q-.857 0-2.572.572-6.572 1.714-12.857 1.714H82.284q-18.857 0-32.285-13.428t-13.43-32.286V118.858Q36.57 100 50 86.572t32.284-13.428h237.714q18.857 0 32.286 13.428t13.428 32.286v72.572q0 3.714 2.572 6.286l18.286 18.286q2.857 2.857 6.572 2.857 1.714 0 3.428-.858 5.714-2.286 5.714-8.286V118.86q0-34-24.143-58.144T320 36.573H82.284q-34 0-58.143 24.143T0 118.86zM73.428 256q0 9.43 6.857 16.286l31.428 31.428q6.857 6.857 16.285 6.857t16.285-6.856l75.143-75.143L404.283 413.43q6.857 6.857 16.286 6.857t16.285-6.857l31.428-31.43q6.857-6.856 6.857-16.284t-6.857-16.286l-232.57-232.57Q228.854 110 219.426 110t-16.286 6.857L80.285 239.714Q73.427 246.57 73.427 256z" horiz-adv-x="476"/><glyph unicode="" d="M18.285 201.143q0 14.857 10.572 26l186 185.714q10.857 10.857 26 10.857 14.857 0 25.715-10.857L288 391.714q10.857-10.857 10.857-26t-10.857-26L204.286 256H405.43q14.856 0 24.142-10.714t9.286-25.857v-36.573q0-15.143-9.286-25.857t-24.143-10.714H204.285l83.715-84Q298.86 52 298.86 36.572T288 10.858l-21.427-21.714Q256-21.428 240.86-21.428q-14.858 0-26 10.572l-186 186.286q-10.573 10.572-10.573 25.714z"/><glyph unicode="" d="M0 182.857v36.572q0 15.142 9.286 25.856T33.43 256H234.57l-83.714 84Q140 350.286 140 365.714t10.858 25.715l21.428 21.427q10.857 10.857 25.714 10.857 15.143 0 26-10.857l186-186q10.572-10 10.572-25.714 0-15.428-10.572-26l-186-186Q212.857-21.43 198-21.43q-14.572 0-25.714 10.573L150.858 10.57Q140 21.43 140 36.57t10.858 26l83.714 83.715H33.43q-14.858 0-24.144 10.714T0 182.855z"/><glyph unicode="" d="M15.143 198q0 15.143 10.857 26l186 186q10 10.572 25.714 10.572 15.428 0 26-10.572l186-186q10.572-11.143 10.572-26 0-14.572-10.572-25.714l-21.428-21.428Q417.43 140 402.286 140q-15.428 0-25.714 10.858l-84 83.714V33.43q0-14.858-10.714-24.144T256 0h-36.57q-15.144 0-25.858 9.286T182.858 33.43V234.57l-84-83.714Q88.573 140 73.143 140T47.428 150.86L26 172.286Q15.143 183.143 15.143 198z" horiz-adv-x="476"/><glyph unicode="" d="M15.143 237.714q0 15.143 10.857 26l21.143 21.428q11.143 10.572 26 10.572 15.143 0 25.715-10.572l84-84v201.143q0 14.857 10.857 25.715t25.715 10.857h36.572q14.857 0 25.714-10.857t10.857-25.715V201.142l84 84q10.572 10.572 25.714 10.572 14.857 0 26-10.572l21.428-21.428q10.572-11.143 10.572-26 0-15.143-10.572-25.714l-186-186.286q-11.143-10.572-26-10.572-15.143 0-25.714 10.572L26 212q-10.856 10.286-10.856 25.714z" horiz-adv-x="476"/><glyph unicode="" d="M0 155.43q0 56.856 15.143 95.142 46.285 115.143 250 115.143h64v73.143q0 7.428 5.428 12.857t12.858 5.428 12.857-5.428L506.57 305.43Q512 300 512 292.57t-5.43-12.857L360.286 133.43q-5.428-5.43-12.857-5.43t-12.857 5.43-5.427 12.856v73.143h-64q-28 0-50.143-1.715t-44-6.143-38-12.143-30.143-19.858T80 150.715t-13.857-39.572-5-51.714q0-15.715 1.428-35.144 0-1.714.716-6.714T64 10q0-4.286-2.427-7.143T54.858 0q-4.572 0-8 4.857-2 2.572-3.715 6.286t-3.857 8.572-3 6.857Q0 108 0 155.43z"/><glyph unicode="" d="M0 18.286v128q0 7.428 5.428 12.857t12.857 5.428 12.857-5.427L72.285 118l94.857 94.857q2.857 2.857 6.572 2.857t6.572-2.857l32.572-32.572q2.857-2.857 2.857-6.572t-2.857-6.572L118 72.285l41.144-41.143q5.428-5.427 5.428-12.856t-5.428-12.857T146.287 0h-128Q10.86 0 5.43 5.426T.002 18.284zm223.143 246.857q0 3.714 2.857 6.572l94.857 94.857-41.143 41.143q-5.428 5.428-5.428 12.857t5.428 12.857 12.857 5.427h128q7.43 0 12.858-5.428t5.428-12.858v-128q0-7.428-5.428-12.857t-12.857-5.428-12.856 5.428l-41.143 41.143L271.715 226q-2.857-2.856-6.572-2.856T258.57 226l-32.572 32.573q-2.857 2.857-2.857 6.572z"/><glyph unicode="" d="M3.715 45.714q0 3.714 2.857 6.572l94.857 94.857-41.144 41.143q-5.428 5.428-5.428 12.857T60.286 214t12.857 5.428h128q7.428 0 12.857-5.428t5.43-12.857v-128q0-7.428-5.43-12.857t-12.856-5.428-12.857 5.428l-41.143 41.143L52.287 6.57q-2.857-2.857-6.572-2.857t-6.572 2.857L6.57 39.144Q3.715 42 3.715 45.716zm215.714 192v128q0 7.428 5.428 12.857t12.857 5.43 12.857-5.43l41.143-41.142 94.857 94.857q2.857 2.857 6.572 2.857t6.572-2.857l32.572-32.572q2.857-2.857 2.857-6.57t-2.857-6.573l-94.857-94.857 41.144-41.143q5.428-5.428 5.428-12.857t-5.428-12.857-12.857-5.428h-128q-7.428 0-12.857 5.428t-5.43 12.857z"/><glyph unicode="" d="M0 192v91.428q0 4 2.57 6.572t6.573 2.57h125.715q-26.572 0-45.285 18.716t-18.715 45.286 18.715 45.285 45.285 18.715q30.572 0 48-22l36.572-47.143 36.572 47.142q17.428 22 48 22 26.572 0 45.286-18.715t18.714-45.285-18.714-45.286-45.286-18.714h125.714q4 0 6.572-2.572t2.572-6.57V192q0-4-2.572-6.57t-6.572-2.573h-27.428V64q0-11.428-8-19.428t-19.428-8H64.003q-11.428 0-19.428 8t-8 19.428v118.857H9.147q-4 0-6.572 2.572T.005 192zm107.428 164.572q0-11.428 8-19.428t19.428-8h55.715l-36 46Q147.144 384 134.858 384q-11.428 0-19.428-8t-8-19.427zM173.714 88q0-7.143 5.143-11T192 73.143h54.857q8 0 13.143 3.857t5.143 11v204.57h-91.428V88zm74.857 241.143H304q11.428 0 19.428 8t8 19.428-8 19.43T304 384q-12.286 0-19.714-8.858z"/><glyph unicode="" d="M0 71.143q0 10 8.857 21t19.428 18.714 19.428 16 8.857 13.714q0 1.144-4 10.858T47.998 164q-2.572 14.572-2.572 29.714 0 32.857 12.428 62.857t34 52.716T140.57 349t58.284 27.286q15.714 5.143 41.428 7.286t51.286 2.57 51 1.715 46.714 6.857 32.428 16.143l8.428 8.43 8.428 8L446.28 433l10.428 4.572 12.428 1.285q11.143 0 20.143-13.143t13.57-32 6.858-35.428 2.286-27.428q0-27.143-5.714-55.143-13.143-64-52.714-109.428T351.423 89.715Q290.28 58.858 226.28 58.858q-42.285 0-81.715 13.428-4.286 1.428-25.143 12T91.994 94.858q-4.572 0-11.285-9.143t-12.858-20-15-20-17.143-9.143q-8.573 0-14.573 3.143t-8.857 6.857-7.715 12q-.57 1.143-1.715 3.143t-1.57 2.857-.858 2.714-.428 3.857zm109.715 93.43q0-7.43 5.428-12.858T128 146.287q6.857 0 12.857 5.428Q148.57 158.572 162 172t19.143 18.858q39.143 35.428 76.715 50.286T347.43 256q7.428 0 12.857 5.43t5.428 12.857-5.428 12.857-12.857 5.428q-49.143 0-90.857-14.143t-74.143-38.286-67.285-62.714q-5.428-6-5.428-12.857z"/><glyph unicode="" d="M0 172.857Q-.285 176.57 2.57 180L30 207.714q2.57 2.572 6.57 2.572 1.716 0 2.286-.286l55.428-15.143 74 74L23.14 348.57q-4 2.287-4.856 6.858-.572 4.57 2.572 7.714l36.572 36.57q4 3.716 8.572 2.287l190-45.43 45.714 45.715q21.714 21.715 49.143 30.857t42.286-3.43q12.572-14.856 3.428-42.284t-30.856-49.143l-46-46 45.714-198.857Q366.856 88 362 84l-36.572-27.428q-2-1.714-5.428-1.714-1.143 0-2 .286-4.286.857-6 4.572L232.286 204.86l-74-74 15.143-55.43q1.428-4.856-2.287-8.856l-27.43-27.428q-2.57-2.572-6.57-2.572h-.572q-4.285.572-6.856 3.714l-54 72-72 54q-3.143 2-3.715 6.572z" horiz-adv-x="403"/><glyph unicode="" d="M0 0v365.714q0 14.857 10.857 25.714t25.715 10.857h36.572v27.43q0 18.856 13.428 32.285t32.285 13.428h18.285q18.857 0 32.286-13.428t13.428-32.286v-27.43H292.57v27.43q0 18.857 13.428 32.286t32.286 13.428h18.286q18.857 0 32.286-13.428t13.428-32.286v-27.43h36.572q14.857 0 25.714-10.856t10.857-25.714V0q0-14.857-10.857-25.714T438.856-36.57H36.57q-14.857 0-25.715 10.856T-.002 0zm36.572 0h82.285v82.286H36.572V0zm0 100.572h82.285V192H36.572v-91.428zm0 109.714h82.285v82.286H36.572v-82.286zm73.143 137.143q0-3.715 2.715-6.43t6.428-2.713h18.285q3.714 0 6.43 2.714t2.713 6.43v82.285q0 3.714-2.714 6.428t-6.428 2.714H118.86q-3.716 0-6.43-2.714t-2.714-6.428V347.43zM137.143 0h91.43v82.286h-91.43V0zm0 100.572h91.43V192h-91.43v-91.428zm0 109.714h91.43v82.286h-91.43v-82.286zM246.857 0h91.43v82.286h-91.43V0zm0 100.572h91.43V192h-91.43v-91.428zm0 109.714h91.43v82.286h-91.43v-82.286zm82.286 137.143q0-3.715 2.714-6.43t6.428-2.713h18.286q3.715 0 6.43 2.714t2.713 6.43v82.285q0 3.714-2.714 6.428t-6.43 2.714h-18.285q-3.714 0-6.428-2.714t-2.714-6.428V347.43zM356.573 0h82.285v82.286h-82.286V0zm0 100.572h82.285V192h-82.286v-91.428zm0 109.714h82.285v82.286h-82.286v-82.286z" horiz-adv-x="476"/><glyph unicode="" d="M0 219.43q0 37.142 20.285 71t54.572 58.427 81.715 39T256 402.285q69.714 0 128.572-24.428t93.143-66.572T512 219.428t-34.286-91.857T384.57 61 256 36.57q-20 0-41.43 2.287-56.57-50-131.428-69.143-14-4-32.572-6.286-4.857-.57-8.715 2.572t-5 8.286v.286q-.857 1.143-.143 3.428t.572 2.857 1.285 2.714l1.714 2.573 2 2.428 2.285 2.573q2 2.286 8.856 9.857t9.857 10.857 8.857 11.286 9.285 14.572 7.715 16.857 7.428 21.714q-44.857 25.428-70.715 62.857T-.004 219.43z"/><glyph unicode="" d="M25.715 108.143q0 7.572 5.428 13l212 211.714q5.43 5.428 12.857 5.428t12.857-5.428l212-211.714q5.428-5.428 5.428-13t-5.428-13L433.43 48q-5.43-5.428-12.858-5.428T407.715 48L256 199.714 104.288 48q-5.428-5.428-12.857-5.428T78.573 48L31.145 95.143q-5.428 5.428-5.428 13z"/><glyph unicode="" d="M25.715 257.572q0 7.572 5.428 13l47.428 47.143q5.43 5.428 12.858 5.428t12.857-5.428L256 166l151.713 151.715q5.428 5.428 12.857 5.428t12.857-5.428l47.428-47.143q5.428-5.428 5.428-13t-5.428-13l-212-211.714q-5.428-5.428-12.857-5.428t-12.857 5.428l-212 211.714q-5.427 5.428-5.427 13z"/><glyph unicode="" d="M0 384q0 7.428 5.428 12.857t12.857 5.428h73.143q4.572 0 8.143-1.857t5.716-4.428 3.715-7 2.144-7.572 1.572-8.428 1.285-7.286h343.144q7.428 0 12.857-5.43t5.43-12.856V201.142q0-6.857-4.573-12.143t-11.714-6.144L160.857 148q.286-2 1.286-6.144t1.714-7.572.714-6.286q0-4.572-6.856-18.286H420.57q7.43 0 12.858-5.428t5.428-12.857-5.428-12.857-12.857-5.428H128q-7.43 0-12.858 5.428t-5.428 12.857q0 4 3.143 11.286t8.428 17 5.857 10.857L76.57 365.713H18.285q-7.428 0-12.857 5.43T0 383.998zM109.715 36.572q0 15.143 10.715 25.857t25.857 10.713 25.857-10.714 10.714-25.858-10.714-25.857T146.287 0 120.43 10.716t-10.715 25.857zm256 0q0 15.143 10.713 25.857t25.857 10.713 25.857-10.714 10.714-25.858-10.714-25.857T402.285 0t-25.857 10.715-10.714 25.857z" horiz-adv-x="476"/><glyph unicode="" d="M0 82.286v274.286q0 34 24.143 58.143t58.143 24.143h274.286q34 0 58.143-24.143t24.143-58.143V82.286q0-34-24.143-58.143T356.572 0H82.286q-34 0-58.143 24.143T0 82.286zm73.143 36q42.285-26.857 92-26.857 32 0 60 10.142t48 27.143 34.428 39.143T329 214.144t7 48.143q0 5.143-.287 7.714 18 12.858 30 31.144-16-7.143-34.572-9.714 19.43 11.428 26.573 33.428Q339.14 314 319.427 310.286 302 329.143 275.713 329.143q-24.857 0-42.428-17.57t-17.572-42.43q0-8.285 1.43-13.713-36.858 2-69.144 18.572T93.14 318.288q-8.285-14.286-8.285-30.286 0-32.572 26-50-13.428.286-28.572 7.428v-.572q0-21.428 14.285-38.143T131.713 186q-8.285-2.285-14.572-2.285-3.714 0-11.142 1.143 6-18 21.285-29.714t34.715-12q-33.143-25.714-74.572-25.714-7.428 0-14.285.857z"/><glyph unicode="" d="M0 82.286v274.286q0 34 24.143 58.143t58.143 24.143h274.286q34 0 58.143-24.143t24.143-58.143V82.286q0-34-24.143-58.143T356.572 0h-54.857v173.714h58l8.572 64h-66.572v40.857q0 15.43 8 23.716t27.428 8.286l37.714.286V370q-27.428 2.573-51.428 2.573-38.858 0-62.287-23t-23.428-64.428v-47.428h-64v-64h64V.003H82.285q-34 0-58.142 24.143T0 82.29z"/><glyph unicode="" d="M0 73.143V256q0 15.143 10.714 25.857T36.57 292.57h78.286Q125.14 299.43 154 336.858q16.57 21.428 30.57 36.572 6.858 7.142 10.144 24.427T203.428 434t17.715 30.857q11.143 10.572 25.714 10.572 24 0 43.143-9.287t29.143-29 10-53.143q0-26.57-13.714-54.857h50.285q29.714 0 51.428-21.714t21.714-51.144q0-25.428-14-46.57 2.572-9.43 2.572-19.715 0-22-10.858-41.142.857-6 .857-12.286 0-28.857-17.144-50.857Q400.572 46 376 23T311.143 0h-36.857q-27.428 0-54.143 6.43t-61.857 18.713Q125.143 36.57 118.858 36.57H36.573q-15.143 0-25.857 10.715T.002 73.142zM36.572 91.43Q36.572 84 42 78.57t12.857-5.428 12.857 5.428 5.428 12.857-5.428 12.856-12.857 5.428T42 104.286 36.572 91.43zm73.143-18.287h9.143q3.715 0 9-.857t9.428-1.857 10.857-3.144 10-3.286 10.143-3.572 8.286-3q60.286-20.857 97.714-20.857h34.572q54.857 0 54.857 47.715 0 7.428-1.428 16 8.572 4.572 13.572 15t5 21T375.715 156q15.143 14.285 15.143 34 0 7.142-2.858 15.856t-7.143 13.572q9.142.286 15.285 13.428T402.288 256q0 14.57-11.143 25.57t-25.428 11H265.145q0 16.573 13.714 45.573T292.572 384q0 28-9.143 41.43t-36.572 13.427Q239.43 431.43 236 414.57t-8.713-35.856-17-31.285q-6.286-6.573-22-26-1.143-1.43-6.57-8.573t-9-11.714T162.858 289t-11.43-12.57-11-10.144-11.428-7.714-10.143-2.57h-9.144V73.143z"/><glyph unicode="" d="M0 182.857v182.857q0 15.143 10.714 25.857t25.857 10.715h82.286q6.285 0 39.43 11.428 36.57 12.572 63.713 18.857t57.142 6.286h32q40 0 64.714-22.572t24.428-61.715v-1.43q17.143-22 17.143-50.856 0-6.286-.857-12.286 10.857-19.143 10.857-41.143 0-10.286-2.572-19.714 14-21.142 14-46.57 0-29.43-21.714-51.144t-51.427-21.714h-50.286q13.714-28.286 13.714-54.857 0-33.714-10-53.143-10-19.714-29.142-29t-43.143-9.285q-14.57 0-25.715 10.572-9.714 9.427-15.428 23.427t-7.286 25.857-5 24.143-8.857 18.286Q170.854 80 153.997 102q-28.857 37.427-39.143 44.285H36.57q-15.143 0-25.857 10.714T0 182.855zM36.572 347.43q0-7.43 5.428-12.858t12.857-5.428 12.857 5.428 5.428 12.857-5.428 12.856-12.857 5.428T42 360.286t-5.428-12.857zm73.143-164.573h9.143q4.572 0 10.143-2.572t11.43-7.714 11-10.142 11.427-12.572 9.857-12.143 9-11.714 6.57-8.573q15.715-19.428 22-26 11.715-12.286 17-31.286T236 24.285 246.855-.002q27.43 0 36.57 13.428t9.144 41.428q0 16.857-13.714 45.857t-13.714 45.573h100.572q14.286 0 25.428 11t11.143 25.572q0 10-6.143 23.143t-15.286 13.428q4.286 4.857 7.143 13.572t2.856 15.857q0 19.715-15.143 34 5.143 9.143 5.143 19.715t-5 21-13.572 15q1.428 8.572 1.428 16 0 24.285-14 36t-38.857 11.714h-36.572q-37.428 0-97.714-20.857-1.43-.57-8.287-3t-10.143-3.57-10-3.287-10.857-3.143-9.428-1.857-9-.857h-9.143V182.856z"/><glyph unicode="" d="M12.572 78q10-1.143 22.285-1.143 64.285 0 114.57 39.428-30 .572-53.714 18.428T63.14 180.285q9.43-1.428 17.43-1.428 12.284 0 24.284 3.143-32 6.572-53 31.857t-21 58.714v1.144Q50.282 262.857 72.57 262q-18.858 12.572-30 32.857t-11.144 44q0 25.143 12.572 46.572 34.572-42.573 84.143-68.144t106.144-28.428q-2.286 10.857-2.286 21.143 0 38.287 27 65.287t65.286 27q40 0 67.428-29.143 31.143 6 58.572 22.286-10.572-32.857-40.572-50.857 26.572 2.857 53.143 14.286-19.143-28-46.286-47.716.285-4 .285-12 0-37.143-10.857-74.143t-33-71-52.714-60.142-73.714-41.714-92.286-15.572Q76.856 36.572 12.57 78z" horiz-adv-x="476"/><glyph unicode="" d="M27.143 216.857v84.572H100v62.284q0 53.143 29.714 82.43t79.143 29.285q42 0 65.143-3.43v-75.428h-44.857q-24.57 0-33.143-10.286t-8.572-30.857v-54h83.714L260 216.856h-72.573V0H100v216.857H27.14z" horiz-adv-x="293"/><glyph unicode="" d="M0 219.43q0 59.713 29.428 110.142t79.857 79.857 110.143 29.427T329.57 409.43t79.858-79.858 29.428-110.143q0-71.715-41.857-129T288.855 11.142q-7.714-1.428-11.286 2t-3.572 8.572V82q0 27.715-14.857 40.573 16.287 1.714 29.287 5.143t26.857 11.143 23.143 19 15.143 30 5.857 43q0 34.57-22.572 58.856 10.572 26-2.286 58.286-8 2.572-23.144-3.143t-26.286-12.573l-10.857-6.857q-26.572 7.43-54.857 7.43t-54.857-7.43q-4.573 3.144-12.144 7.715t-23.857 11-24.573 3.857q-12.572-32.285-2-58.285-22.572-24.286-22.572-58.857 0-24.285 5.857-42.857t15-30 23-19.143 26.857-11.143 29.284-5.143q-11.428-10.286-14-29.428-6-2.857-12.857-4.286t-16.285-1.428-18.715 6.143-15.857 17.857q-5.428 9.143-13.857 14.857t-14.143 6.856l-5.715.857q-6 0-8.285-1.286t-1.428-3.286 2.572-4 3.715-3.427l2-1.428q6.284-2.857 12.427-10.857t9-14.572l2.857-6.572q3.715-10.857 12.572-17.572t19.143-8.572 19.856-2 15.857 1l6.572 1.143q0-10.857.143-25.428t.143-15.428q0-5.143-3.713-8.572t-11.428-2q-66.286 22-108.144 79.286T0 219.43z"/><glyph unicode="" d="M0 45.714V272.57q12.572-14 28.857-24.856 103.43-70.286 142-98.572 16.285-12 26.43-18.714t27-13.714 31.427-7h.572q14.572 0 31.428 7t27 13.714 26.428 18.714q48.572 35.143 142.286 98.572Q499.714 258.857 512 272.57V45.715q0-18.857-13.428-32.286T466.286 0H45.714Q26.857 0 13.43 13.428T0 45.714zm0 304.572q0 22.286 11.857 37.143t33.857 14.856h420.572q18.572 0 32.143-13.428T512 356.572q0-22.57-14-43.143t-34.856-35.144q-107.428-74.57-133.714-92.857-2.857-2-12.143-8.715t-15.428-10.857T287 156.572t-16.428-7.714-14.286-2.572h-.57q-6.572 0-14.287 2.572t-16.428 7.714-14.857 9.286-15.43 10.857-12.142 8.714q-26 18.285-74.857 52.142t-58.572 40.715q-17.715 12-33.428 33t-15.714 39z"/><glyph unicode="" d="M.285 194l57.428 235.714q1.143 4 4.572 6.57t8 2.573H164q5.428 0 9.143-3.572t3.714-8.428q0-2.285-1.43-5.143l-48.856-132.286 113.144 28q2.286.57 3.43.57 5.428 0 9.713-4.285 5.143-5.714 2-12.57L100.57-29.43q-3.714-7.143-12-7.143-1.142 0-4 .572-4.856 1.427-7.284 5.427T76-22l56.287 230.856-116-28.857q-1.143-.287-3.428-.287-5.144 0-8.858 3.143Q-1.14 187.142.287 194z" horiz-adv-x="256"/><glyph unicode="" d="M0 231.143q0 1.428.285 2Q13.142 285.43 49.57 324.43t85.143 58.427 103 19.428q40 0 78.428-11.428t70.43-32.428T442.14 305t33-71.856q.287-.57.287-2 0-3.714-2.714-6.428t-6.428-2.714q-3.143 0-6.572 2.857-14 13.142-26.572 19.714T404 251.146q-19.428 0-36.572-10.572t-29.428-27.714q-2-2.857-5-8t-4.143-6.857q-3.143-4.857-8-4.857-5.143 0-8.286 4.857-1.144 1.714-4.144 6.857t-5 8q-12.286 17.143-29.286 27.714t-36.428 10.572-36.428-10.572-29.286-27.714q-2-2.857-5-8t-4.143-6.857q-3.143-4.857-8.286-4.857-4.858 0-8 4.857-1.144 1.714-4.144 6.857t-5 8q-12.285 17.143-29.428 27.714t-36.572 10.572q-16.572 0-29.143-6.572T15.71 224.86q-3.427-2.857-6.57-2.857-3.716 0-6.43 2.714t-2.714 6.43zm109.715-158q0 7.428 5.428 12.857T128 91.428 140.857 86t5.43-12.857q0-14.286 11.142-25.428t25.428-11.143 25.428 11.143 11.143 25.428v165.714Q228.857 242 237.713 242T256 238.857V73.143q0-29.714-21.714-51.428T182.858 0 131.43 21.716t-21.715 51.428zM219.43 410.857v28q0 7.428 5.428 12.857t12.857 5.43 12.857-5.43T256 438.857v-28q-12 .572-18.286.572t-18.286-.573z" horiz-adv-x="476"/><glyph unicode="" d="M0 74q0 19.428 1.57 37.428t6.858 39.428T22 188.713t23.143 29.428 34.285 17.287q-6.285-14.857-6.285-34.286v-58q-16.572-5.713-26.572-20t-10-31.713q0-22.857 16-38.857t38.858-16 38.857 16 16 38.857q0 17.428-10.143 31.714t-26.428 20v58q0 17.715 7.143 26.573Q154.572 198 201.142 198t84.285 29.713q7.143-8.857 7.143-26.572v-18.285q-30.286 0-51.714-21.428t-21.428-51.714V84.285Q210.285 76 210.285 64q0-11.43 8-19.43t19.43-8 19.427 8 8 19.43q0 12-9.143 20.285v25.428q0 14.857 10.856 25.714t25.714 10.857 25.714-10.857 10.857-25.714V84.285Q320 76 320 64q0-11.43 8-19.43t19.428-8 19.428 8 8 19.43q0 12-9.143 20.285v25.428q0 19.428-9.856 36.428t-26.714 26.715q0 2.857.143 12.143t0 13.714-.714 11.857-2 13.427-3.715 11.428q19.428-4.286 34.286-17.286t23.144-29.43 13.572-37.856 6.857-39.428 1.572-37.428q0-34.572-20.857-54.286T326-.002H76.286q-34.572 0-55.428 19.714T0 73.998zm73.143 17.43q0 7.427 5.428 12.856t12.858 5.428 12.857-5.428 5.428-12.857-5.428-12.858-12.857-5.428-12.857 5.428-5.427 12.857zm18.285 237.713q0 45.428 32.143 77.57t77.573 32.144 77.57-32.143 32.144-77.57-32.143-77.573-77.572-32.142-77.572 32.143-32.143 77.573z" horiz-adv-x="403"/><glyph unicode="" d="M0 64v237.714Q0 328 18.857 346.857T64 365.714h18.285V0H64Q37.715 0 18.857 18.857T0 64zM109.715 0v365.714h36.572v45.714q0 11.428 8 19.428t19.428 8h164.57q11.43 0 19.43-8t8-19.428v-45.714h36.57V0h-292.57zm73.142 365.714h146.286v36.572H182.857v-36.572zM429.714 0v365.714H448q26.286 0 45.143-18.857T512 301.714V64q0-26.286-18.857-45.143T448 0h-18.286z"/><glyph unicode="" d="M22 228.572q0 3.714 2.857 6.572l14.285 14.286q2.857 2.857 6.572 2.857t6.572-2.857L164.57 137.144 276.857 249.43q2.857 2.857 6.572 2.857T290 249.43l14.286-14.286q2.857-2.857 2.857-6.572T304.286 222L171.143 88.857Q168.286 86 164.573 86T158 88.857L24.857 222Q22 224.857 22 228.572zm0 109.714q0 3.714 2.857 6.572l14.285 14.285Q42 362 45.714 362t6.572-2.857L164.57 246.858l112.286 112.285q2.857 2.857 6.572 2.857t6.572-2.857l14.286-14.285q2.857-2.857 2.857-6.572t-2.857-6.572L171.143 198.57q-2.857-2.856-6.57-2.856T158 198.57L24.857 331.715Q22 334.57 22 338.286z" horiz-adv-x="329"/><glyph unicode="" d="M0 82.286v274.286q0 34 24.143 58.143t58.143 24.143h274.286q34 0 58.143-24.143t24.143-58.143V82.286q0-34-24.143-58.143T356.572 0H82.286q-34 0-58.143 24.143T0 82.286zm73.143 27.428q0-15.143 10.715-25.857t25.857-10.714 25.857 10.714 10.714 25.857-10.714 25.857-25.857 10.715-25.857-10.714-10.715-25.856zm0 91.143q0-3.714 2.428-6.286t6.144-2.856q44-3.143 75.428-34.572t34.57-75.428Q192 78 194.57 75.57t6.286-2.427h36.57q3.715 0 6.573 2.857t2.57 6.857Q242.856 149.143 196 196T82.855 246.572q-4 .286-6.857-2.572t-2.858-6.57v-36.573zm0 109.715q0-3.714 2.572-6.286T82 301.43q58.286-2 108-31.858t79.572-79.57T301.43 82q.285-3.715 2.856-6.287t6.286-2.572h36.572q3.714 0 6.572 2.857 3.143 2.572 2.572 6.572-1.428 44-16 85t-39.857 74.286-58.57 58.572-74.287 39.857-85 16q-4 .286-6.572-2.57-2.856-2.858-2.856-6.573v-36.572z"/><glyph unicode="" d="M15.428 164.714Q15.428 180 26 190.57L285.143 449.43q10.572 10.57 25.857 10.57t25.857-10.57l35.714-35.714q-16-16-16-38.857t16-38.857 38.858-16 38.857 16l36-35.714q10.572-10.572 10.572-25.857t-10.572-25.858L227.142-10.856q-10.572-10.572-25.857-10.572t-25.857 10.572l-36 36q16 16 16 38.857t-16 38.858-38.857 16-38.856-16l-35.715 36q-10.573 10.572-10.573 25.857zm82.287 18.143q0-7.428 5.428-12.857l103.43-103.428q5.142-5.143 12.856-5.143t12.856 5.142l176.57 176.57q5.43 5.43 5.43 12.858t-5.43 12.857L305.43 372.285q-5.144 5.143-12.858 5.143t-12.857-5.143l-176.57-176.57q-5.43-5.43-5.43-12.858zm31.428 0l163.43 163.428L382.857 256 219.428 92.572z"/><glyph unicode="" d="M0 45.714V88.57Q0 92.286 2.715 95t6.43 2.713h27.714V207.14H9.715q-4 0-6.572 2.715t-2.57 6.428v37.428q0 4 2.57 6.573t6.572 2.57H36.86v63.716q0 48.856 35.284 80.57T162 438.855q52.858 0 95.715-35.715 2.572-2.285 2.857-5.857t-2-6.428l-29.428-36.286q-2.57-3.144-6.286-3.43-3.714-.57-6.572 2-1.43 1.43-7.428 5.43t-19.714 9.142-26.572 5.143q-24.286 0-39.143-13.428t-14.858-35.143v-61.428h87.143q3.714 0 6.43-2.572t2.713-6.57v-37.43q0-3.713-2.714-6.427t-6.428-2.714h-87.143V98.857h118.285v51.714q0 3.715 2.57 6.43t6.572 2.713h46.286q4 0 6.572-2.714t2.572-6.43V45.715q0-4-2.572-6.572t-6.572-2.572H9.143q-4 0-6.572 2.572T0 45.714z" horiz-adv-x="293"/><glyph unicode="" d="M14.857 85.43L44.285 124q2 2.858 6.572 3.43 4.285.57 6.857-2.573l.572-.572Q90.57 96 127.714 88.57q10.572-2.285 21.143-2.285 23.143 0 40.715 12.286t17.572 34.858q0 8-4.286 15.143t-9.572 12-16.714 10.715-18.857 9.143-22.857 9.286q-11.143 4.572-17.572 7.143t-17.572 7.572-17.857 8.856-16.143 10.143T50.43 235.57t-12.43 14-10.142 16.572-6 19-2.428 22.286q0 39.428 28 69.143t72.857 38.286v51.427q0 3.715 2.715 6.428t6.43 2.715H168q4 0 6.573-2.572t2.57-6.572V416q16.286-1.714 31.572-6.57t24.857-9.573 18.143-10.714 11.143-8.286 4.286-4q4.857-5.143 1.428-10.857l-23.143-41.715q-2.285-4.286-6.57-4.57-4-.858-7.714 2-.857.856-4.143 3.427t-11.143 7.572-16.714 9.143-21.286 7.428-24.428 3.286q-27.143 0-44.285-12.285T92.004 308.57q0-7.427 2.428-13.713T102.86 283t11.285-9.428 16-8.857T147.43 257t20-7.856q15.144-5.714 23.144-9t21.715-10T233.86 218t17.715-14.285 15.143-18.143 9-21.857 3.714-26.857q0-43.714-28.428-75.286t-73.857-39v-50q0-4-2.57-6.572t-6.573-2.572h-38.572q-3.715 0-6.428 2.715t-2.715 6.428v50q-18.858 2.573-36.43 8.858t-29 12.714T33.72 57.856 20.433 68.57t-5 5.143q-4.857 6-.572 11.714z" horiz-adv-x="293"/><glyph unicode="" d="M0 209.43v36.285q0 3.714 2.715 6.428t6.43 2.714h32q37.714 0 60.714 12.286t29.284 35.714h-122q-4 0-6.572 2.57T.002 312v29.143q0 4 2.57 6.572t6.572 2.572h118q-16.285 32.285-76.572 32.285H9.144q-3.715 0-6.428 2.715T0 391.715v38q0 4 2.572 6.572t6.572 2.572h237.714q4 0 6.57-2.573t2.573-6.572v-29.143q0-4-2.57-6.57t-6.57-2.573h-66.573q13.428-17.43 18.286-41.144h48.857q4 0 6.57-2.572t2.573-6.572V312q0-4-2.57-6.572t-6.572-2.572h-48q-6.57-41.143-36.856-66.857t-78.857-31.43Q131.43 153.715 214.86 51.43q4-4.572 1.143-9.714-2.286-5.143-8.286-5.143h-55.714q-4.572 0-7.143 3.43Q57.432 144.855 2.574 203.14q-2.57 2.572-2.57 6.286z" horiz-adv-x="257"/><glyph unicode="" d="M1.143 425.143q-2.285 4.572 0 9.143 2.857 4.572 8 4.572H64.57q5.43 0 8.286-5.143l61.43-121.428q5.427-10.857 16-35.714 2.856 6.857 8.713 19.428t7.856 17.43l54.57 120q2.287 5.427 8.287 5.427h54.572q4.857 0 7.714-4.572 2.57-4 .285-8.857l-89.428-165.43h61.428q3.714 0 6.428-2.713t2.714-6.428v-29.714q0-4-2.714-6.572t-6.428-2.57h-82.857v-24.287h82.857q3.714 0 6.428-2.714t2.714-6.43v-29.427q0-4-2.714-6.572t-6.428-2.57h-82.857V45.712q0-3.714-2.714-6.428t-6.43-2.714h-49.142q-3.715 0-6.428 2.573T114 45.715V140H31.713q-3.715 0-6.428 2.573t-2.715 6.572v29.428q0 3.714 2.716 6.428t6.428 2.715H114V212H31.713q-3.715 0-6.428 2.573t-2.715 6.572v29.714q0 3.713 2.716 6.427T31.714 260h61.143z" horiz-adv-x="294"/><glyph unicode="" d="M0 109.714v36.572q0 4 2.57 6.572t6.573 2.572h64v33.714h-64q-4 0-6.572 2.572T0 198.288v42.572q0 3.714 2.57 6.428t6.573 2.714h64v179.714q0 4 2.572 6.572t6.572 2.57h154q57.143 0 93.286-34.856t36.143-90-36.143-90-93.286-34.857h-97.143V155.43H283.43q4 0 6.57-2.57t2.573-6.573v-36.572q0-4-2.572-6.572t-6.57-2.572H139.142V45.715q0-4-2.714-6.572T130 36.57H82.287q-4 0-6.572 2.572t-2.572 6.572v54.857h-64q-4 0-6.572 2.573T0 109.715zM139.143 250h91.43q30.285 0 48.856 17.715T298 314t-18.57 46.286T230.57 378h-91.43V250z" horiz-adv-x="366"/><glyph unicode="" d="M0 228.572v18.286q0 4 2.57 6.572T9.144 256h50l-9.428 36.573H9.143q-4 0-6.572 2.57T0 301.717v18.286q0 4 2.57 6.572t6.573 2.57h31.143l-25.428 98.287q-1.428 4.287 1.428 8 2.857 3.43 7.428 3.43h39.143q7.428 0 8.857-6.858L97.43 329.145H200l27.714 102.857q2 6.857 8.857 6.857h36q6.858 0 8.858-6.858l28-102.857h104.286l26.572 102.857q1.428 6.857 8.857 6.857h39.143q4.572 0 7.428-3.43 2.857-3.713 1.428-8l-26-98.285h31.714q4 0 6.572-2.57t2.57-6.573v-18.286q0-4-2.57-6.572t-6.573-2.572h-41.428l-9.714-36.57h51.143q4 0 6.572-2.573t2.572-6.572v-18.286q0-4-2.572-6.572t-6.572-2.572H442l-46.858-176q-2-6.857-8.857-6.857h-45.428Q334 36.57 332 43.43l-47.428 176h-59.714l-47.714-176q-2-6.857-8.857-6.857H122.86q-3.144 0-5.573 2t-3 4.858l-45.715 176H9.144q-4 0-6.572 2.57t-2.57 6.573zm106.572 64l9.143-36.57H180l10 36.57h-83.428zm18-73.143L146 133.714q.286-.286.286-.857t.286-.857q0 .287.143 1t.143 1L170 219.43h-45.427zM234.857 256h39.715l-10 36.572h-20zm84.57 36.572l9.715-36.57h65.714l9.428 36.57h-84.857zm19.716-73.143L362.286 134q0-.285.143-1t.427-1q0 .287.143.858t.143.857l22.286 85.714h-46.287z"/><glyph unicode="" d="M16 36.572l8.857 52.286h31.715q14.285 0 16.572 14.572v114.857h4.572q-1.715.286-4.572.286v82Q69.43 320 47.716 320H16v46.858l60.573-.286q18.285 0 27.715.286v72h44v-70.57q23.428.57 34.857.57v70h44v-72q22.57-2 40-6.428t32.286-12.857 23.573-22.285 10.428-32.714q5.144-52-37.427-73.714 33.428-8 50-29.428t12.857-61.143q-2-20.287-9.286-35.715t-18.428-25.428-27.714-16.714-34.714-9.857-41.572-4.286v-72.857h-44v71.714q-22.857 0-34.857.286v-72h-44V36.29q-5.144 0-15.43.143t-15.714.143H16.003zm133.143 52q2.286 0 10.57-.143t13.715-.144 15.143.428 16.716 1.143 16.286 2.428 15.857 4 13.57 6 11.286 8.572 7 11.428T272 136.857q0 10.286-4.286 18.286t-10.572 13.143T240.714 177 222 182.286t-21.143 2.572-19.715.857-18.428-.286-13.572-.287V88.57zm0 140.57q1.43 0 9.857-.142t13.286 0 14.286.572 15.714 1.57T217 234.287t13.857 5.286 10.57 7.714 7.715 11 2.57 14.572q0 9.428-3.57 16.714t-8.714 12-13.714 8T210 314.286t-17.572 2.286-16.572.714-15.428-.286-11.286-.143v-87.714z" horiz-adv-x="366"/><glyph unicode="" d="M0 82.286v274.286q0 34 24.143 58.143t58.143 24.143h274.286q34 0 58.143-24.143t24.143-58.143V82.286q0-34-24.143-58.143T356.572 0H82.286q-34 0-58.143 24.143T0 82.286zm62.285 58.857q0-50.286 5.715-74.286Q70.857 54.57 80.143 46t21.572-10q39.143-4.286 117.715-4.286T337.145 36q12.286 1.428 21.572 10t12.143 20.857q5.714 24 5.714 74.286 0 50.572-5.428 74.286-2.857 12.57-12.286 21t-21.714 9.856q-38.857 4.286-117.714 4.286-78.572 0-117.428-4.286-12.572-1.428-21.857-9.857t-12.143-21q-5.715-24.858-5.715-74.287zM85.715 194v20H152v-20h-22.857V73.143H108V194H85.715zm27.428 217.714L120 392l6.572-19.714q10-29.428 13.143-45.143v-57.428h21.143v57.428l25.715 84.57h-21.428L150.573 356l-15.143 55.714h-22.285zm41.714-316.57V178h18.857v-77.143q0-6.857.286-7.428.286-4.287 4.286-4.287 5.714 0 12 8.857v80h19.143V73.143h-19.144V84.57q-11.143-12.856-21.714-12.856-9.428 0-12 8-1.714 4.572-1.714 15.428zm32 208.856q0-16.57 6-24.857 7.714-10.857 22.285-10.857 14 0 22.286 10.857 6 7.714 6 24.857v37.143q0 16.57-6 24.857-8.286 10.857-22.286 10.857-14.572 0-22.286-10.857-6-8.286-6-24.857V304zM206 300.286v44.572q0 14.857 9.143 14.857t9.143-14.857v-44.572q0-14.572-9.143-14.572T206 300.286zm19.714-227.143V214h19.143v-46q9.143 11.428 19.43 11.428 11.713 0 15.142-12 2-6 2-21.143V104.57q0-14.856-2-20.856-3.43-12-15.144-12-10 0-19.428 11.714V73.142h-19.143zm19.143 20.57q4.57-4.57 9.43-4.57 8.285 0 8.285 14v44.856q0 14.285-8.286 14.285-4.857 0-9.428-4.572v-64zm14.286 198q0-10.57 1.714-15.713 3.143-7.714 12.286-7.714 10.286 0 22 12.857v-11.428h19.143V375.43h-19.143V294.57q-6.286-8.857-12-8.857-4.286 0-4.572 4.572-.285.57-.285 7.428v77.714h-19.143v-83.715zm37.143-184.57V144q0 16.857 5.714 24.572 8.286 10.857 22.857 10.857t22.286-10.858q6-8 6-24.572v-21.714h-38v-18.572q0-14.572 9.714-14.572 6.857 0 8.572 7.428 0 .286.142 2t.143 4.714v6.143h19.428v-2.572q0-8.286-.572-12.286-.856-6.287-4.285-11.43-7.714-11.427-22.857-11.427-14.857 0-23.143 10.857-6 7.714-6 24.572zM315.143 138H334v9.714q0 14.572-9.428 14.572t-9.428-14.572V138z"/><glyph unicode="" d="M7.715 110.857q0 66.857 7.43 100 4 16.857 16.57 28.286t29.43 13.428q52.284 5.715 158.285 5.715T378 252.57q16.573-2 29.287-13.427t16.428-28.286q7.428-32 7.428-100 0-66.857-7.428-100-4-16.857-16.572-28.286T378-30.57q-52.572-6-158.57-6t-158.572 6Q44.286-28.858 31.573-17.43T15.145 10.858q-7.428 32-7.428 100zM39.428 182h30V19.428H98V182h30.572v26.857H39.43V182zM76 475.43h30.285l20.285-75.144L146 475.43h29.142l-34.57-114V284h-28.573v77.43Q108 382.57 94.57 422 84 451.43 76 475.43zm56.286-426.573q0-14 2.286-20.857 3.43-10.572 16.572-10.572 13.714 0 29.143 17.428V19.428h25.43V160.57h-25.43v-108q-8.57-12-16.285-12-5.143 0-6 6-.286.858-.286 10v104h-25.428V48.858zm43.143 281.43v50q0 22.856 8 33.427 10.856 14.572 30 14.572 19.714 0 30.284-14.572 8-10.57 8-33.428v-50q0-23.143-8-33.714Q233.142 282 213.428 282q-19.143 0-30 14.572-8 10.857-8 33.714zm25.713-4.858q0-20 12.286-20t12.285 20v60q0 19.713-12.286 19.713t-12.287-19.714v-60zM228 19.43h25.428v13.713Q266.285 17.43 280 17.43q15.428 0 20.286 15.713 2.572 7.714 2.572 28.572V118q0 20.858-2.572 28.287-4.857 16-20.286 16-14.286 0-26.572-15.428v62H228V19.43zm25.43 27.427v86q6.284 6.286 12.856 6.286 11.143 0 11.143-19.143V59.714q0-19.143-11.144-19.143-6.572 0-12.857 6.287zM272.856 314v112.572h26V321.715q0-9.428.286-10 .857-6.286 6-6.286 7.714 0 16.286 12.285v108.857h26v-142.57h-26v15.713Q306.285 282 292 282q-13.142 0-16.856 10.573-2.286 6.857-2.286 21.428zm50-248.857q0-22.572 8.286-33.143Q342.286 17.428 362 17.428q20.572 0 30.857 15.143 5.143 7.715 6 15.43.572 2.57.572 16.57v3.715h-26q0-14.572-.573-17.428-2-10.286-11.428-10.286-13.144 0-13.144 19.715v24.857h51.143v29.428q0 22.572-7.715 33.143-11.143 14.572-30.286 14.572-19.43 0-30.573-14.572-8-10.572-8-33.143V65.142zm25.43 41.43v13.142q0 19.428 12.856 19.428T374 119.715v-13.143h-25.714z"/><glyph unicode="" d="M0 329.143q0 45.428 32.143 77.57t77.572 32.144q37.143 0 66.857-22.857 22 4.57 42.857 4.57 40.856 0 78.142-15.856t64.286-42.857 42.857-64.285 15.857-78.143q0-20.858-4.572-42.858 22.857-29.714 22.857-66.857 0-45.428-32.143-77.572T329.142 0Q292 0 262.285 22.857q-22-4.572-42.857-4.572-40.857 0-78.143 15.857T77 77t-42.857 64.285-15.857 78.143q0 20.857 4.572 42.857Q0 292 0 329.142zm107.428-178.57q0-26.287 34.857-45t83.143-18.715q20.857 0 40 5.286t35 15.286 25.286 26.714 9.428 37.572q0 14.286-5.572 26.143t-13.857 19.57-20.857 14-23.572 9.715-25 6.572l-29.714 6.857q-8.572 2-12.572 3t-10 3.286-8.572 4.572-4.714 6-2.143 8.572q0 22 41.142 22 12.286 0 22-3.43t15.428-8.142 10.857-9.572 11.428-8.286 13.714-3.43q13.427 0 21.57 9.144t8.144 22q0 15.714-16 28.428T266.282 348t-52 6.573q-19.428 0-37.714-4.428t-34.143-13.428-25.428-24.857-9.572-36.714q0-17.428 5.428-30.428t16-21.572 22.857-13.857 29.43-9.287l41.713-10.286q25.714-6.286 32-10.286 9.143-5.713 9.143-17.142 0-11.143-11.428-18.428t-30-7.286q-14.572 0-26.143 4.572t-18.57 11-13 12.857-13.144 11-15.428 4.572q-14.285 0-21.572-8.572t-7.285-21.428z"/><glyph unicode="" d="M0 173.714Q0 182 4.572 188.857L77.715 298.57Q98.572 329.144 128 329.144h109.714q29.428 0 50.286-30.572l73.143-109.713q4.572-6.857 4.572-15.143 0-11.428-8-19.428t-19.428-8q-14.572 0-22.857 12.286L250.573 256h-12.857v-37.714l70.572-117.428q2.572-4.286 2.572-9.428 0-7.428-5.428-12.857t-12.857-5.428h-54.857V-4.57q0-13.142-9.43-22.57t-22.57-9.43h-45.715q-13.143 0-22.572 9.428T128.004-4.57v77.714H73.146q-7.428 0-12.857 5.428T54.86 91.43q0 5.142 2.573 9.427l70.57 117.428V256h-12.856L50.29 158.57q-8.285-12.285-22.857-12.285-11.428 0-19.428 8t-8 19.428zm118.857 228.572q0 26.572 18.715 45.286t45.286 18.714 45.286-18.714 18.714-45.286T228.144 357t-45.286-18.714T137.572 357t-18.715 45.286z" horiz-adv-x="366"/><glyph unicode="" d="M0 155.43v118.856q0 22.857 16 38.857t38.857 16h182.857q22.857 0 38.857-16t16-38.857V155.43q0-11.43-8-19.43t-19.427-8-19.428 8-8 19.43V256H219.43V-4.57q0-13.144-9.43-22.573t-22.57-9.428-22.573 9.427T155.43-4.57V128h-18.287V-4.57q0-13.144-9.428-22.573t-22.572-9.428-22.572 9.427T73.144-4.57V256H54.858V155.43q0-11.43-8-19.43t-19.428-8-19.428 8-8 19.43zm82.285 246.856q0 26.572 18.715 45.286t45.286 18.714 45.286-18.714 18.714-45.286T191.572 357t-45.286-18.714T101 357t-18.714 45.286z" horiz-adv-x="293"/><glyph unicode="" d="M0 0q0 7.428 5.857 12.857t13.857 5.428h509.143q8 0 13.857-5.428T548.57 0v-36.572H0V0zm0 329.143v36.57L274.286 475.43l274.286-109.716v-36.57H512q0-7.43-5.857-12.858t-13.857-5.428h-436q-8 0-13.857 5.428t-5.858 12.857H0zm36.572-292.57v18.285q0 7.428 5.857 12.857t13.856 5.428h16.857V292.57h73.143V73.144h36.572V292.57H256V73.144h36.573V292.57h73.143V73.144h36.572V292.57h73.143V73.144h16.858q8 0 13.857-5.428t5.857-12.857V36.572H36.574z" horiz-adv-x="585"/><glyph unicode="" d="M0 329.143q0 6.572 6.285 8.857l320 100.572q1.143.286 2.857.286t2.857-.286L652 338q6.284-2.286 6.284-8.857T652 320.286l-320-100.57q-1.144-.287-2.858-.287t-2.857.285L140 278.572q-12.286-9.714-20.286-31.857t-9.715-51q18-10.286 18-31.143 0-19.714-16.573-30.572L128 10.286q.57-4-2.286-7.143Q123.142 0 118.857 0H64q-4.285 0-6.857 3.143-2.857 3.143-2.285 7.143L71.43 134q-16.572 10.857-16.572 30.572 0 20.857 18.572 31.714 3.143 59.143 28 94.286L6.287 320.286q-6.285 2.286-6.285 8.857zm146.286-182.857l5.143 90.286 164-51.714q6.285-2 13.713-2t13.714 2l164 51.714L512 146.286q1.143-19.714-23.428-36.572T421.43 83t-92.287-9.857T236.857 83t-67.143 26.714-23.43 36.572z" horiz-adv-x="659"/><glyph unicode="" d="M31.143 475.43q16.572-4.287 30.857-4.287 12.285 0 31.715 4.286 18-31.716 38.143-65.573t47.714-79T219.144 266q10.572 17.43 31.286 50.715T284.002 371t30 50.286 30.572 54.143q15.428-4 30.572-4 16 0 32.572 4-8-11.144-17.143-25.287t-14.143-22.428-16.143-27.43-14-24Q304.574 305.43 245.43 202.002l3.714-202q-17.715 3.144-30 3.144-11.714 0-30-3.143l3.714 202q-11.43 19.715-48.143 84.43t-61.857 107-51.715 82z"/><glyph unicode="" d="M31.715 88.572q0 23.143 12.715 42.857t33.857 32.856q37.428 23.428 115.428 28.572-9.143 11.714-13.572 21t-4.428 21q0 11.428 6 24.286Q168.572 258 162.287 258q-42.285 0-71.285 27.573t-29 69.857q0 23.43 10.285 45.43t28.285 37.427q21.715 18.857 52 28t62.286 9.143H334l-39.142-25.143h-37.714q21.428-18 32.286-38t10.857-45.715q0-20.57-7-37t-17-26.572-19.857-18.572-16.857-17.572-7-18.857q0-10.287 9.143-20.144t22-19.428 25.857-21 22.143-29.714 9.143-40.572q0-26-14-49.428Q286.572 32.857 247 16.428T161.717 0Q124.002 0 91.29 11.857T42.003 51.143Q31.72 68 31.72 88.57zm53.142 13.142q0-16 6.715-29.143T109 51t24.857-14.287 28.57-8.286 29-2.428q16.573 0 31.858 3.713t28.285 11.143 20.857 20.857 7.857 31.143q0 7.143-2 14t-4.143 12-7.713 11.857-8.428 10-11 9.857-10.43 8.286-11.856 8.572-10.43 7.428q-4.57.572-14 .572-15.142 0-29.856-2t-30.57-7.143-27.716-13.143-19.572-21.286-7.715-30.143zm30.286 284q0-13.143 2.857-27.857t9-29.428T141.857 302t21.43-19.142 27.57-7.428q10.573 0 22.144 4.714t18.716 12.428q15.143 16 15.143 45.428 0 16.857-4.858 35.857t-13.714 36.857-24 29.572T170.86 452q-12 0-23.572-5.572t-19-15q-13.143-16.857-13.143-45.714z" horiz-adv-x="366"/><glyph unicode="" d="M0 242.857q0 26.857 18.857 45.715t45.715 18.857q23.715 0 42.285-15.715Q177.714 336.858 276 338.572l38.286 120.857q1.143 4 5 6.142t8.143 1.286l99.142-23.43q6.286 14.287 19.572 23.144t29.286 8.857q22 0 37.57-15.573t15.573-37.57T513 384.57t-37.57-15.715q-21.715 0-37.287 15.428t-15.857 37.43l-90 21.142-33.143-104.57q93.428-4 160-47.43 18.286 16.573 43.143 16.573 26.857 0 45.715-18.857t18.858-45.714q0-17.715-8.857-32.573t-23.714-23.428q1.428-9.43 1.428-17.43 0-34.57-19.572-65.856t-56.428-55.286Q424 24.86 378.142 12.43T282.285.004Q232 .003 186.142 12.43T104.857 48.29Q68 72.288 48.43 103.43t-19.573 66q0 8.287 1.428 18.858-13.715 8.857-22 23.286T0 242.86zm22 0q0-19.143 14.572-31.714 14 37.428 51.428 67.143-10.285 7.143-23.428 7.143-17.715 0-30.143-12.43T22 242.86zm28.857-73.428q0-28.858 17-55.43t49-47.427q33.143-21.428 75.857-33T282.286 22t89.572 11.573 75.857 33q32 20.857 49 47.428t17 55.43-17 55.285-49 47.286q-33.143 21.43-75.857 33t-89.572 11.573T192.714 305t-75.857-33q-32-20.856-49-47.285t-17-55.286zM158.57 200q0 16.286 11.858 28t27.857 11.714T225.855 228t11.573-28q0-16-11.572-27.428t-27.572-11.428q-16.286 0-28 11.428T158.57 200zm30.287-103.57q0 4.713 3.143 7.856t7.714 3.143 7.714-3.144q22-22 75.714-22h.572q53.714 0 75.714 22 3.143 3.143 7.714 3.143t7.714-3.144T378 96.43t-3.144-7.858q-28.286-28.286-91.143-28.286h-.572q-62.856 0-91.142 28.286-3.143 3.143-3.143 7.857zM329.427 200q0 16.286 11.858 28t27.857 11.714T396.714 228t11.572-28q0-16-11.572-27.428t-27.572-11.428q-16.286 0-28 11.428T329.428 200zm114.86 222.286q0-12.857 9.142-22t22-9.143 22 9.143 9.142 22-9.143 22-22 9.143-22-9.144-9.144-22zm33.427-144.857q37.43-30 50.857-68 16.286 13.142 16.286 33.427 0 17.714-12.428 30.143t-30.143 12.43q-14 0-24.572-8z" horiz-adv-x="567"/><glyph unicode="" d="M0 243.43q0 22.856 12 39.856t34 17q21.715 0 40.428-15.857t28.715-38.287 10-43.572q0-22.856-12-39.713t-34-16.857q-21.715 0-40.428 15.857T10 200 0 243.428zM73.143 42q0 24.572 16 54.714t39.857 55 53.572 41.714 55.143 16.857q33.715 0 72.857-27.857T376 114.714 402.286 42q0-13.143-4.857-21.857T383.57 7.286t-18.428-5.714T343.43 0q-19.428 0-53.572 12.857t-52.143 12.857q-18.857 0-55-12.714T125.43.286Q73.145.286 73.145 42zm22 326.857q0 17.143 5.428 32.428t18 26.428 30 11.143q22 0 39.573-16.428t26.143-38.572 8.57-43.286q0-17.143-5.427-32.428t-18-26.428-30-11.143q-21.715 0-39.43 16.43t-26.284 38.714-8.572 43.143zm157.428-28.285q0 21.143 8.572 43.286t26.143 38.572 39.572 16.428q17.428 0 30-11.143t18-26.428 5.428-32.428q0-20.858-8.572-43.144t-26.286-38.714T306 270.574q-17.43 0-30 11.143t-18 26.43-5.43 32.427zm97.716-138q0 21.143 10 43.572T389 284.43t40.428 15.857q22 0 34-17t12-39.857q0-21.143-10-43.428t-28.714-38.143T396.286 146q-22 0-34 16.857t-12 39.713z" horiz-adv-x="476"/><glyph unicode="" d="M18.285 324.572q0 36.572 12.143 71.286T64 453t45.715 22.43T155.43 453 189 395.86t12.144-71.286q0-41.428-16.285-69.57t-43.43-38.715l12.858-234.57q.57-7.43-4.57-12.858t-12.573-5.43H82.288q-7.428 0-12.572 5.43t-4.572 12.856L78 216.288Q50.86 226.86 34.574 255.002t-16.285 69.572z" horiz-adv-x="220"/></font>
</defs>
</svg>
